<svg width="864" height="848" viewBox="0 0 864 848" fill="none" xmlns="http://www.w3.org/2000/svg">
<path d="M219.5 616H99V637.5H219.5V616Z" fill="#1A8D8A"/>
<path d="M200.5 521H101V560H200.5V521Z" fill="#1A8D8A"/>
<path d="M372.5 357.5L97 293V400.5L372.5 463L751.5 357.5V263L372.5 357.5Z" fill="#0E8985"/>
<path d="M37.5829 68.9481C89.4783 42.3046 422.392 159.967 422.392 159.967C422.392 159.967 708.762 -3.94118 762.176 5.55446C815.589 15.0501 864.37 797.999 821.971 801.708C779.571 805.418 468.795 690.353 468.795 690.353C468.795 690.353 129.592 876.453 97.378 865.102C65.1637 853.752 -14.3125 95.5917 37.5829 68.9481Z" fill="#44A1A0" fill-opacity="0.55"/>
<path d="M92.1242 108.001C142.157 88.4953 439.827 218.032 439.827 218.032C439.827 218.032 717.282 95.4973 765.798 108.001C814.315 120.504 796.121 815.199 756.701 815.199C717.282 815.199 439.827 689.664 439.827 689.664C439.827 689.664 111.834 827.703 83.0273 815.199C54.2205 802.695 42.0913 127.506 92.1242 108.001Z" fill="#0E8A86" fill-opacity="0.6"/>
</svg>
